<mxfile host="app.diagrams.net" agent="Mozilla/5.0 (Macintosh; Intel Mac OS X 10_15_7) AppleWebKit/537.36 (KHTML, like Gecko) Chrome/130.0.0.0 Safari/537.36" version="24.7.13">
  <diagram id="Ht1M8jgEwFfnCIfOTk4-" name="Page-1">
    <mxGraphModel dx="1320" dy="761" grid="0" gridSize="10" guides="1" tooltips="1" connect="1" arrows="1" fold="1" page="0" pageScale="1" pageWidth="1169" pageHeight="827" background="none" math="0" shadow="0">
      <root>
        <mxCell id="0" />
        <mxCell id="1" parent="0" />
        <mxCell id="UEzPUAAOIrF-is8g5C7q-128" style="edgeStyle=orthogonalEdgeStyle;rounded=0;orthogonalLoop=1;jettySize=auto;html=1;startArrow=open;startFill=0;endArrow=open;endFill=0;strokeWidth=2;strokeColor=#808080;" parent="1" source="UEzPUAAOIrF-is8g5C7q-109" target="UEzPUAAOIrF-is8g5C7q-114" edge="1">
          <mxGeometry relative="1" as="geometry">
            <Array as="points">
              <mxPoint x="310.5" y="461.5" />
              <mxPoint x="310.5" y="376.5" />
            </Array>
          </mxGeometry>
        </mxCell>
        <mxCell id="UEzPUAAOIrF-is8g5C7q-124" style="edgeStyle=orthogonalEdgeStyle;rounded=0;orthogonalLoop=1;jettySize=auto;html=1;startArrow=open;startFill=0;endArrow=open;endFill=0;strokeWidth=2;strokeColor=#808080;" parent="1" source="UEzPUAAOIrF-is8g5C7q-110" target="UEzPUAAOIrF-is8g5C7q-111" edge="1">
          <mxGeometry relative="1" as="geometry">
            <Array as="points">
              <mxPoint x="300.5" y="241.5" />
              <mxPoint x="300.5" y="101.5" />
            </Array>
          </mxGeometry>
        </mxCell>
        <mxCell id="UEzPUAAOIrF-is8g5C7q-127" style="edgeStyle=orthogonalEdgeStyle;rounded=0;orthogonalLoop=1;jettySize=auto;html=1;startArrow=open;startFill=0;endArrow=open;endFill=0;strokeWidth=2;strokeColor=#808080;" parent="1" source="UEzPUAAOIrF-is8g5C7q-110" target="UEzPUAAOIrF-is8g5C7q-114" edge="1">
          <mxGeometry relative="1" as="geometry">
            <Array as="points">
              <mxPoint x="311.5" y="281.5" />
              <mxPoint x="311.5" y="361.5" />
            </Array>
          </mxGeometry>
        </mxCell>
        <mxCell id="UEzPUAAOIrF-is8g5C7q-125" style="edgeStyle=orthogonalEdgeStyle;rounded=0;orthogonalLoop=1;jettySize=auto;html=1;startArrow=open;startFill=0;endArrow=open;endFill=0;strokeWidth=2;strokeColor=#808080;" parent="1" source="UEzPUAAOIrF-is8g5C7q-111" target="UEzPUAAOIrF-is8g5C7q-112" edge="1">
          <mxGeometry relative="1" as="geometry">
            <Array as="points">
              <mxPoint x="530.5" y="101.5" />
              <mxPoint x="530.5" y="101.5" />
            </Array>
          </mxGeometry>
        </mxCell>
        <mxCell id="UEzPUAAOIrF-is8g5C7q-126" style="edgeStyle=orthogonalEdgeStyle;rounded=0;orthogonalLoop=1;jettySize=auto;html=1;startArrow=open;startFill=0;endArrow=open;endFill=0;strokeWidth=2;strokeColor=#808080;" parent="1" source="UEzPUAAOIrF-is8g5C7q-113" target="UEzPUAAOIrF-is8g5C7q-114" edge="1">
          <mxGeometry relative="1" as="geometry" />
        </mxCell>
        <mxCell id="UEzPUAAOIrF-is8g5C7q-129" style="edgeStyle=orthogonalEdgeStyle;rounded=0;orthogonalLoop=1;jettySize=auto;html=1;startArrow=open;startFill=0;endArrow=open;endFill=0;strokeWidth=2;strokeColor=#808080;" parent="1" source="UEzPUAAOIrF-is8g5C7q-114" target="UEzPUAAOIrF-is8g5C7q-115" edge="1">
          <mxGeometry relative="1" as="geometry">
            <Array as="points">
              <mxPoint x="510.5" y="391.5" />
              <mxPoint x="510.5" y="391.5" />
            </Array>
          </mxGeometry>
        </mxCell>
        <mxCell id="UEzPUAAOIrF-is8g5C7q-130" style="edgeStyle=orthogonalEdgeStyle;rounded=0;orthogonalLoop=1;jettySize=auto;html=1;startArrow=open;startFill=0;endArrow=open;endFill=0;strokeWidth=2;strokeColor=#808080;" parent="1" source="UEzPUAAOIrF-is8g5C7q-115" target="UEzPUAAOIrF-is8g5C7q-116" edge="1">
          <mxGeometry relative="1" as="geometry">
            <Array as="points">
              <mxPoint x="700" y="352" />
              <mxPoint x="700" y="53" />
            </Array>
          </mxGeometry>
        </mxCell>
        <mxCell id="UEzPUAAOIrF-is8g5C7q-131" style="edgeStyle=orthogonalEdgeStyle;rounded=0;orthogonalLoop=1;jettySize=auto;html=1;startArrow=open;startFill=0;endArrow=open;endFill=0;strokeWidth=2;strokeColor=#808080;" parent="1" source="UEzPUAAOIrF-is8g5C7q-115" target="UEzPUAAOIrF-is8g5C7q-117" edge="1">
          <mxGeometry relative="1" as="geometry">
            <Array as="points">
              <mxPoint x="720.5" y="361.5" />
              <mxPoint x="720.5" y="162.5" />
            </Array>
          </mxGeometry>
        </mxCell>
        <mxCell id="UEzPUAAOIrF-is8g5C7q-132" style="edgeStyle=orthogonalEdgeStyle;rounded=0;orthogonalLoop=1;jettySize=auto;html=1;startArrow=open;startFill=0;endArrow=open;endFill=0;strokeWidth=2;strokeColor=#808080;" parent="1" source="UEzPUAAOIrF-is8g5C7q-115" target="UEzPUAAOIrF-is8g5C7q-119" edge="1">
          <mxGeometry relative="1" as="geometry">
            <Array as="points">
              <mxPoint x="760" y="372" />
              <mxPoint x="760" y="280" />
            </Array>
          </mxGeometry>
        </mxCell>
        <mxCell id="UEzPUAAOIrF-is8g5C7q-133" style="edgeStyle=orthogonalEdgeStyle;rounded=0;orthogonalLoop=1;jettySize=auto;html=1;startArrow=open;startFill=0;endArrow=open;endFill=0;strokeWidth=2;strokeColor=#808080;" parent="1" source="UEzPUAAOIrF-is8g5C7q-115" target="UEzPUAAOIrF-is8g5C7q-120" edge="1">
          <mxGeometry relative="1" as="geometry">
            <Array as="points">
              <mxPoint x="760.5" y="381.5" />
              <mxPoint x="760.5" y="415.5" />
            </Array>
          </mxGeometry>
        </mxCell>
        <mxCell id="UEzPUAAOIrF-is8g5C7q-134" style="edgeStyle=orthogonalEdgeStyle;rounded=0;orthogonalLoop=1;jettySize=auto;html=1;startArrow=open;startFill=0;endArrow=open;endFill=0;strokeWidth=2;strokeColor=#808080;" parent="1" source="UEzPUAAOIrF-is8g5C7q-115" target="UEzPUAAOIrF-is8g5C7q-121" edge="1">
          <mxGeometry relative="1" as="geometry">
            <Array as="points">
              <mxPoint x="740.5" y="391.5" />
              <mxPoint x="740.5" y="530.5" />
            </Array>
          </mxGeometry>
        </mxCell>
        <mxCell id="UEzPUAAOIrF-is8g5C7q-135" style="edgeStyle=orthogonalEdgeStyle;rounded=0;orthogonalLoop=1;jettySize=auto;html=1;startArrow=open;startFill=0;endArrow=open;endFill=0;strokeWidth=2;strokeColor=#808080;" parent="1" source="UEzPUAAOIrF-is8g5C7q-115" target="UEzPUAAOIrF-is8g5C7q-122" edge="1">
          <mxGeometry relative="1" as="geometry">
            <Array as="points">
              <mxPoint x="720.5" y="401.5" />
              <mxPoint x="720.5" y="653.5" />
            </Array>
          </mxGeometry>
        </mxCell>
        <mxCell id="UEzPUAAOIrF-is8g5C7q-136" style="edgeStyle=orthogonalEdgeStyle;rounded=0;orthogonalLoop=1;jettySize=auto;html=1;startArrow=open;startFill=0;endArrow=open;endFill=0;strokeWidth=2;strokeColor=#808080;" parent="1" source="UEzPUAAOIrF-is8g5C7q-115" target="UEzPUAAOIrF-is8g5C7q-123" edge="1">
          <mxGeometry relative="1" as="geometry">
            <Array as="points">
              <mxPoint x="700" y="412" />
              <mxPoint x="700" y="730" />
            </Array>
          </mxGeometry>
        </mxCell>
        <mxCell id="UEzPUAAOIrF-is8g5C7q-137" value="" style="edgeStyle=orthogonalEdgeStyle;rounded=0;orthogonalLoop=1;jettySize=auto;html=1;startArrow=none;startFill=0;endArrow=open;endFill=0;strokeWidth=2;strokeColor=#808080;" parent="1" source="UEzPUAAOIrF-is8g5C7q-117" target="UEzPUAAOIrF-is8g5C7q-118" edge="1">
          <mxGeometry relative="1" as="geometry" />
        </mxCell>
        <mxCell id="UEzPUAAOIrF-is8g5C7q-139" style="edgeStyle=orthogonalEdgeStyle;rounded=0;orthogonalLoop=1;jettySize=auto;html=1;startArrow=open;startFill=0;endArrow=open;endFill=0;strokeWidth=2;strokeColor=#808080;" parent="1" source="UEzPUAAOIrF-is8g5C7q-110" target="UEzPUAAOIrF-is8g5C7q-111" edge="1">
          <mxGeometry relative="1" as="geometry">
            <mxPoint x="270.2846463484759" y="261.67647058823536" as="sourcePoint" />
            <mxPoint x="422.5" y="124.02941176470586" as="targetPoint" />
            <Array as="points">
              <mxPoint x="311.5" y="261.5" />
              <mxPoint x="311.5" y="121.5" />
            </Array>
          </mxGeometry>
        </mxCell>
        <mxCell id="UEzPUAAOIrF-is8g5C7q-141" style="edgeStyle=orthogonalEdgeStyle;rounded=0;orthogonalLoop=1;jettySize=auto;html=1;startArrow=open;startFill=0;endArrow=open;endFill=0;strokeWidth=2;strokeColor=#808080;" parent="1" source="UEzPUAAOIrF-is8g5C7q-113" target="UEzPUAAOIrF-is8g5C7q-114" edge="1">
          <mxGeometry relative="1" as="geometry">
            <mxPoint x="500.5" y="260.22413793103453" as="sourcePoint" />
            <mxPoint x="418.4655172413793" y="347.5" as="targetPoint" />
            <Array as="points">
              <mxPoint x="529.5" y="351.5" />
            </Array>
          </mxGeometry>
        </mxCell>
        <mxCell id="UEzPUAAOIrF-is8g5C7q-142" style="edgeStyle=orthogonalEdgeStyle;rounded=0;orthogonalLoop=1;jettySize=auto;html=1;startArrow=open;startFill=0;endArrow=open;endFill=0;strokeWidth=2;strokeColor=#808080;" parent="1" source="UEzPUAAOIrF-is8g5C7q-114" target="UEzPUAAOIrF-is8g5C7q-115" edge="1">
          <mxGeometry relative="1" as="geometry">
            <mxPoint x="457.5" y="386.5" as="sourcePoint" />
            <mxPoint x="590.5" y="386.5" as="targetPoint" />
            <Array as="points">
              <mxPoint x="510.5" y="371.5" />
              <mxPoint x="510.5" y="371.5" />
            </Array>
          </mxGeometry>
        </mxCell>
        <mxCell id="UEzPUAAOIrF-is8g5C7q-143" style="edgeStyle=orthogonalEdgeStyle;rounded=0;orthogonalLoop=1;jettySize=auto;html=1;startArrow=open;startFill=0;endArrow=open;endFill=0;strokeWidth=2;strokeColor=#808080;" parent="1" source="UEzPUAAOIrF-is8g5C7q-111" target="UEzPUAAOIrF-is8g5C7q-112" edge="1">
          <mxGeometry relative="1" as="geometry">
            <mxPoint x="500.5" y="111.5" as="sourcePoint" />
            <mxPoint x="578.5" y="111.5" as="targetPoint" />
            <Array as="points">
              <mxPoint x="530.5" y="121.5" />
              <mxPoint x="530.5" y="121.5" />
            </Array>
          </mxGeometry>
        </mxCell>
        <mxCell id="UEzPUAAOIrF-is8g5C7q-109" value="data lake CLI" style="outlineConnect=0;gradientColor=none;fontColor=#545B64;strokeColor=none;fillColor=#879196;dashed=0;verticalLabelPosition=bottom;verticalAlign=top;align=center;html=1;fontSize=12;fontStyle=0;aspect=fixed;shape=mxgraph.aws4.illustration_desktop;pointerEvents=1;labelBackgroundColor=#ffffff;" parent="1" vertex="1">
          <mxGeometry x="160.5" y="415.5" width="100" height="91" as="geometry" />
        </mxCell>
        <mxCell id="UEzPUAAOIrF-is8g5C7q-110" value="data lake console" style="outlineConnect=0;gradientColor=none;fontColor=#545B64;strokeColor=none;fillColor=#879196;dashed=0;verticalLabelPosition=bottom;verticalAlign=top;align=center;html=1;fontSize=12;fontStyle=0;aspect=fixed;shape=mxgraph.aws4.illustration_notification;pointerEvents=1;labelBackgroundColor=#ffffff;" parent="1" vertex="1">
          <mxGeometry x="160.5" y="221.5" width="100" height="81" as="geometry" />
        </mxCell>
        <mxCell id="UEzPUAAOIrF-is8g5C7q-111" value="Amazon &lt;br&gt;Cognito" style="outlineConnect=0;fontColor=#232F3E;gradientColor=#F54749;gradientDirection=north;fillColor=#C7131F;strokeColor=#ffffff;dashed=0;verticalLabelPosition=bottom;verticalAlign=top;align=center;html=1;fontSize=12;fontStyle=0;aspect=fixed;shape=mxgraph.aws4.resourceIcon;resIcon=mxgraph.aws4.cognito;labelBackgroundColor=#ffffff;" parent="1" vertex="1">
          <mxGeometry x="412.5" y="74.5" width="78" height="78" as="geometry" />
        </mxCell>
        <mxCell id="UEzPUAAOIrF-is8g5C7q-112" value="Active&lt;br&gt;Directory" style="outlineConnect=0;fontColor=#232F3E;gradientColor=#F54749;gradientDirection=north;fillColor=#C7131F;strokeColor=#ffffff;dashed=0;verticalLabelPosition=bottom;verticalAlign=top;align=center;html=1;fontSize=12;fontStyle=0;aspect=fixed;shape=mxgraph.aws4.resourceIcon;resIcon=mxgraph.aws4.cloud_directory;labelBackgroundColor=#ffffff;" parent="1" vertex="1">
          <mxGeometry x="568.5" y="74.5" width="78" height="78" as="geometry" />
        </mxCell>
        <mxCell id="UEzPUAAOIrF-is8g5C7q-113" value="Lambda" style="outlineConnect=0;fontColor=#232F3E;gradientColor=#F78E04;gradientDirection=north;fillColor=#D05C17;strokeColor=#ffffff;dashed=0;verticalLabelPosition=bottom;verticalAlign=top;align=center;html=1;fontSize=12;fontStyle=0;aspect=fixed;shape=mxgraph.aws4.resourceIcon;resIcon=mxgraph.aws4.lambda;labelBackgroundColor=#ffffff;spacingTop=3;" parent="1" vertex="1">
          <mxGeometry x="490.5" y="211.5" width="78" height="78" as="geometry" />
        </mxCell>
        <mxCell id="UEzPUAAOIrF-is8g5C7q-114" value="Amazon API&lt;br&gt;Gateway&lt;br&gt;" style="outlineConnect=0;fontColor=#232F3E;gradientColor=#945DF2;gradientDirection=north;fillColor=#5A30B5;strokeColor=#ffffff;dashed=0;verticalLabelPosition=bottom;verticalAlign=top;align=center;html=1;fontSize=12;fontStyle=0;aspect=fixed;shape=mxgraph.aws4.resourceIcon;resIcon=mxgraph.aws4.api_gateway;labelBackgroundColor=#ffffff;" parent="1" vertex="1">
          <mxGeometry x="369.5" y="337.5" width="78" height="78" as="geometry" />
        </mxCell>
        <mxCell id="UEzPUAAOIrF-is8g5C7q-115" value="Lambda&lt;br&gt;function" style="outlineConnect=0;fontColor=#232F3E;gradientColor=none;fillColor=#D05C17;strokeColor=none;dashed=0;verticalLabelPosition=bottom;verticalAlign=top;align=center;html=1;fontSize=12;fontStyle=0;aspect=fixed;pointerEvents=1;shape=mxgraph.aws4.lambda_function;labelBackgroundColor=#ffffff;" parent="1" vertex="1">
          <mxGeometry x="580.5" y="337.5" width="78" height="78" as="geometry" />
        </mxCell>
        <mxCell id="UEzPUAAOIrF-is8g5C7q-116" value="Amazon S3" style="outlineConnect=0;fontColor=#232F3E;gradientColor=#60A337;gradientDirection=north;fillColor=#277116;strokeColor=#ffffff;dashed=0;verticalLabelPosition=bottom;verticalAlign=top;align=center;html=1;fontSize=12;fontStyle=0;aspect=fixed;shape=mxgraph.aws4.resourceIcon;resIcon=mxgraph.aws4.s3;labelBackgroundColor=#ffffff;" parent="1" vertex="1">
          <mxGeometry x="800.5000000000002" y="14.5" width="78" height="78" as="geometry" />
        </mxCell>
        <mxCell id="UEzPUAAOIrF-is8g5C7q-117" value="AWS Glue" style="outlineConnect=0;fontColor=#232F3E;gradientColor=#945DF2;gradientDirection=north;fillColor=#5A30B5;strokeColor=#ffffff;dashed=0;verticalLabelPosition=bottom;verticalAlign=top;align=center;html=1;fontSize=12;fontStyle=0;aspect=fixed;shape=mxgraph.aws4.resourceIcon;resIcon=mxgraph.aws4.glue;labelBackgroundColor=#ffffff;" parent="1" vertex="1">
          <mxGeometry x="800.5000000000002" y="123.5" width="78" height="78" as="geometry" />
        </mxCell>
        <mxCell id="UEzPUAAOIrF-is8g5C7q-118" value="Amazon Athena" style="outlineConnect=0;fontColor=#232F3E;gradientColor=#945DF2;gradientDirection=north;fillColor=#5A30B5;strokeColor=#ffffff;dashed=0;verticalLabelPosition=bottom;verticalAlign=top;align=center;html=1;fontSize=12;fontStyle=0;aspect=fixed;shape=mxgraph.aws4.resourceIcon;resIcon=mxgraph.aws4.athena;labelBackgroundColor=#ffffff;" parent="1" vertex="1">
          <mxGeometry x="930.5" y="123.5" width="78" height="78" as="geometry" />
        </mxCell>
        <mxCell id="UEzPUAAOIrF-is8g5C7q-119" value="Amazon&lt;br&gt;DynamoDB&lt;br&gt;" style="outlineConnect=0;fontColor=#232F3E;gradientColor=#4D72F3;gradientDirection=north;fillColor=#3334B9;strokeColor=#ffffff;dashed=0;verticalLabelPosition=bottom;verticalAlign=top;align=center;html=1;fontSize=12;fontStyle=0;aspect=fixed;shape=mxgraph.aws4.resourceIcon;resIcon=mxgraph.aws4.dynamodb;labelBackgroundColor=#ffffff;spacingTop=5;" parent="1" vertex="1">
          <mxGeometry x="800.5000000000002" y="242.5" width="78" height="78" as="geometry" />
        </mxCell>
        <mxCell id="UEzPUAAOIrF-is8g5C7q-120" value="Amazon&lt;br&gt;ElasticSearch&lt;br&gt;Service&lt;br&gt;" style="outlineConnect=0;fontColor=#232F3E;gradientColor=#945DF2;gradientDirection=north;fillColor=#5A30B5;strokeColor=#ffffff;dashed=0;verticalLabelPosition=bottom;verticalAlign=top;align=center;html=1;fontSize=12;fontStyle=0;aspect=fixed;shape=mxgraph.aws4.resourceIcon;resIcon=mxgraph.aws4.elasticsearch_service;labelBackgroundColor=#ffffff;" parent="1" vertex="1">
          <mxGeometry x="800.5000000000002" y="376.5" width="78" height="78" as="geometry" />
        </mxCell>
        <mxCell id="UEzPUAAOIrF-is8g5C7q-121" value="Amazon&lt;br&gt;CloudWatch&lt;br&gt;" style="outlineConnect=0;fontColor=#232F3E;gradientColor=#F34482;gradientDirection=north;fillColor=#BC1356;strokeColor=#ffffff;dashed=0;verticalLabelPosition=bottom;verticalAlign=top;align=center;html=1;fontSize=12;fontStyle=0;aspect=fixed;shape=mxgraph.aws4.resourceIcon;resIcon=mxgraph.aws4.cloudwatch;labelBackgroundColor=#ffffff;" parent="1" vertex="1">
          <mxGeometry x="800.5000000000002" y="491.5" width="78" height="78" as="geometry" />
        </mxCell>
        <mxCell id="UEzPUAAOIrF-is8g5C7q-122" value="IAM Roles" style="outlineConnect=0;fontColor=#232F3E;gradientColor=none;fillColor=#C7131F;strokeColor=none;dashed=0;verticalLabelPosition=bottom;verticalAlign=top;align=center;html=1;fontSize=12;fontStyle=0;aspect=fixed;pointerEvents=1;shape=mxgraph.aws4.role;labelBackgroundColor=#ffffff;" parent="1" vertex="1">
          <mxGeometry x="800.5000000000002" y="631.5" width="78" height="44" as="geometry" />
        </mxCell>
        <mxCell id="UEzPUAAOIrF-is8g5C7q-123" value="Amazon&lt;br&gt;CloudWatch Logs&lt;br&gt;" style="outlineConnect=0;fontColor=#232F3E;gradientColor=none;gradientDirection=north;fillColor=#F34482;strokeColor=none;dashed=0;verticalLabelPosition=bottom;verticalAlign=top;align=center;html=1;fontSize=12;fontStyle=0;aspect=fixed;shape=mxgraph.aws4.cloudwatch;labelBackgroundColor=#ffffff;" parent="1" vertex="1">
          <mxGeometry x="800.5000000000002" y="730" width="78" height="78" as="geometry" />
        </mxCell>
        <mxCell id="zx6dYSFP0FjN7kiB9qOy-3" style="edgeStyle=orthogonalEdgeStyle;rounded=0;orthogonalLoop=1;jettySize=auto;html=1;exitX=0.5;exitY=0;exitDx=0;exitDy=0;" edge="1" parent="1" source="zx6dYSFP0FjN7kiB9qOy-1">
          <mxGeometry relative="1" as="geometry">
            <mxPoint x="210" y="910" as="targetPoint" />
          </mxGeometry>
        </mxCell>
        <mxCell id="zx6dYSFP0FjN7kiB9qOy-1" value="Text" style="text;html=1;align=center;verticalAlign=middle;whiteSpace=wrap;rounded=0;" vertex="1" parent="1">
          <mxGeometry x="250" y="990" width="60" height="30" as="geometry" />
        </mxCell>
        <mxCell id="zx6dYSFP0FjN7kiB9qOy-2" value="" style="shape=mxgraph.cisco.people.pc_man;html=1;pointerEvents=1;dashed=0;fillColor=#036897;strokeColor=#ffffff;strokeWidth=2;verticalLabelPosition=bottom;verticalAlign=top;align=center;outlineConnect=0;" vertex="1" parent="1">
          <mxGeometry x="500" y="841" width="104" height="149" as="geometry" />
        </mxCell>
        <mxCell id="zx6dYSFP0FjN7kiB9qOy-9" style="edgeStyle=orthogonalEdgeStyle;rounded=0;orthogonalLoop=1;jettySize=auto;html=1;" edge="1" parent="1" source="zx6dYSFP0FjN7kiB9qOy-4" target="zx6dYSFP0FjN7kiB9qOy-8">
          <mxGeometry relative="1" as="geometry">
            <Array as="points">
              <mxPoint x="291" y="1380" />
              <mxPoint x="290" y="1395" />
            </Array>
          </mxGeometry>
        </mxCell>
        <mxCell id="zx6dYSFP0FjN7kiB9qOy-15" style="edgeStyle=orthogonalEdgeStyle;rounded=0;orthogonalLoop=1;jettySize=auto;html=1;" edge="1" parent="1" source="zx6dYSFP0FjN7kiB9qOy-4" target="zx6dYSFP0FjN7kiB9qOy-6">
          <mxGeometry relative="1" as="geometry" />
        </mxCell>
        <mxCell id="zx6dYSFP0FjN7kiB9qOy-4" value="開発者" style="verticalLabelPosition=bottom;html=1;verticalAlign=top;align=center;strokeColor=none;fillColor=#00BEF2;shape=mxgraph.azure.user;" vertex="1" parent="1">
          <mxGeometry x="260.5" y="1165" width="60" height="59" as="geometry" />
        </mxCell>
        <mxCell id="zx6dYSFP0FjN7kiB9qOy-12" style="edgeStyle=orthogonalEdgeStyle;rounded=0;orthogonalLoop=1;jettySize=auto;html=1;" edge="1" parent="1" source="zx6dYSFP0FjN7kiB9qOy-6" target="zx6dYSFP0FjN7kiB9qOy-7">
          <mxGeometry relative="1" as="geometry">
            <Array as="points">
              <mxPoint x="660" y="1190" />
            </Array>
          </mxGeometry>
        </mxCell>
        <mxCell id="zx6dYSFP0FjN7kiB9qOy-6" value="Github" style="dashed=0;outlineConnect=0;html=1;align=center;labelPosition=center;verticalLabelPosition=bottom;verticalAlign=top;shape=mxgraph.weblogos.github" vertex="1" parent="1">
          <mxGeometry x="601" y="1157" width="75" height="75" as="geometry" />
        </mxCell>
        <mxCell id="zx6dYSFP0FjN7kiB9qOy-16" style="edgeStyle=orthogonalEdgeStyle;rounded=0;orthogonalLoop=1;jettySize=auto;html=1;entryX=0.972;entryY=0.589;entryDx=0;entryDy=0;entryPerimeter=0;" edge="1" parent="1" source="zx6dYSFP0FjN7kiB9qOy-7" target="zx6dYSFP0FjN7kiB9qOy-8">
          <mxGeometry relative="1" as="geometry">
            <Array as="points">
              <mxPoint x="858" y="1389" />
            </Array>
          </mxGeometry>
        </mxCell>
        <mxCell id="zx6dYSFP0FjN7kiB9qOy-7" value="AWS Cloud" style="sketch=0;outlineConnect=0;fontColor=#232F3E;gradientColor=none;strokeColor=#232F3E;fillColor=#ffffff;dashed=0;verticalLabelPosition=bottom;verticalAlign=top;align=center;html=1;fontSize=12;fontStyle=0;aspect=fixed;shape=mxgraph.aws4.resourceIcon;resIcon=mxgraph.aws4.aws_cloud;" vertex="1" parent="1">
          <mxGeometry x="828" y="1178" width="60" height="60" as="geometry" />
        </mxCell>
        <mxCell id="zx6dYSFP0FjN7kiB9qOy-8" value="Slack" style="shape=image;html=1;verticalAlign=top;verticalLabelPosition=bottom;labelBackgroundColor=#ffffff;imageAspect=0;aspect=fixed;image=https://cdn2.iconfinder.com/data/icons/social-media-2285/512/1_Slack_colored_svg-128.png" vertex="1" parent="1">
          <mxGeometry x="593.5" y="1336" width="90" height="90" as="geometry" />
        </mxCell>
        <mxCell id="zx6dYSFP0FjN7kiB9qOy-17" value="開発者が新規作成や更新コードを&lt;div&gt;バージョン管理サービスGitHubへ&lt;span style=&quot;background-color: initial;&quot;&gt;アップロード&lt;/span&gt;&lt;/div&gt;" style="text;html=1;align=center;verticalAlign=middle;resizable=0;points=[];autosize=1;strokeColor=none;fillColor=none;" vertex="1" parent="1">
          <mxGeometry x="327" y="1154" width="270" height="41" as="geometry" />
        </mxCell>
        <mxCell id="zx6dYSFP0FjN7kiB9qOy-18" value="バージョン管理されたコードが実際のサーバーまたは&lt;div&gt;クラウドインフラに展開されます&lt;/div&gt;" style="text;html=1;align=center;verticalAlign=middle;resizable=0;points=[];autosize=1;strokeColor=none;fillColor=none;" vertex="1" parent="1">
          <mxGeometry x="670" y="1142" width="304" height="41" as="geometry" />
        </mxCell>
        <mxCell id="zx6dYSFP0FjN7kiB9qOy-22" style="edgeStyle=orthogonalEdgeStyle;rounded=0;orthogonalLoop=1;jettySize=auto;html=1;entryX=0.5;entryY=1;entryDx=0;entryDy=0;entryPerimeter=0;" edge="1" parent="1" source="zx6dYSFP0FjN7kiB9qOy-8" target="zx6dYSFP0FjN7kiB9qOy-4">
          <mxGeometry relative="1" as="geometry" />
        </mxCell>
        <mxCell id="zx6dYSFP0FjN7kiB9qOy-23" value="&lt;span style=&quot;text-wrap-mode: nowrap;&quot;&gt;クラウド環境からのエラー通知がSlackに送信されます。&lt;/span&gt;" style="rounded=1;whiteSpace=wrap;html=1;dashed=1;dashPattern=1 1;strokeColor=none;" vertex="1" parent="1">
          <mxGeometry x="703" y="1301" width="371" height="23" as="geometry" />
        </mxCell>
        <mxCell id="zx6dYSFP0FjN7kiB9qOy-25" value="" style="edgeStyle=orthogonalEdgeStyle;rounded=0;orthogonalLoop=1;jettySize=auto;html=1;" edge="1" parent="1" source="zx6dYSFP0FjN7kiB9qOy-6" target="zx6dYSFP0FjN7kiB9qOy-8">
          <mxGeometry relative="1" as="geometry">
            <mxPoint x="639" y="1232" as="sourcePoint" />
            <mxPoint x="638.5" y="1275" as="targetPoint" />
          </mxGeometry>
        </mxCell>
        <mxCell id="zx6dYSFP0FjN7kiB9qOy-26" value="&lt;div&gt;&lt;span style=&quot;text-wrap-mode: nowrap;&quot;&gt;&lt;br&gt;&lt;/span&gt;&lt;/div&gt;&lt;span style=&quot;text-wrap-mode: nowrap;&quot;&gt;GitHubの活動（コメントやプルリクエスト）が&lt;/span&gt;&lt;div&gt;&lt;span style=&quot;text-wrap-mode: nowrap;&quot;&gt;Slackに通知されます。&lt;/span&gt;&lt;/div&gt;&lt;div&gt;&lt;span style=&quot;text-wrap-mode: nowrap;&quot;&gt;&lt;br&gt;&lt;/span&gt;&lt;/div&gt;" style="rounded=1;whiteSpace=wrap;html=1;dashed=1;dashPattern=1 1;strokeColor=none;" vertex="1" parent="1">
          <mxGeometry x="475" y="1268" width="371" height="24" as="geometry" />
        </mxCell>
        <mxCell id="zx6dYSFP0FjN7kiB9qOy-28" style="edgeStyle=orthogonalEdgeStyle;rounded=0;orthogonalLoop=1;jettySize=auto;html=1;exitX=0.5;exitY=1;exitDx=0;exitDy=0;" edge="1" parent="1" source="zx6dYSFP0FjN7kiB9qOy-26" target="zx6dYSFP0FjN7kiB9qOy-26">
          <mxGeometry relative="1" as="geometry" />
        </mxCell>
        <mxCell id="zx6dYSFP0FjN7kiB9qOy-29" style="edgeStyle=orthogonalEdgeStyle;rounded=0;orthogonalLoop=1;jettySize=auto;html=1;" edge="1" parent="1" source="zx6dYSFP0FjN7kiB9qOy-31" target="zx6dYSFP0FjN7kiB9qOy-36">
          <mxGeometry relative="1" as="geometry">
            <Array as="points">
              <mxPoint x="302.5" y="1763" />
              <mxPoint x="301.5" y="1778" />
            </Array>
          </mxGeometry>
        </mxCell>
        <mxCell id="zx6dYSFP0FjN7kiB9qOy-30" style="edgeStyle=orthogonalEdgeStyle;rounded=0;orthogonalLoop=1;jettySize=auto;html=1;" edge="1" parent="1" source="zx6dYSFP0FjN7kiB9qOy-31" target="zx6dYSFP0FjN7kiB9qOy-33">
          <mxGeometry relative="1" as="geometry" />
        </mxCell>
        <mxCell id="zx6dYSFP0FjN7kiB9qOy-46" style="edgeStyle=orthogonalEdgeStyle;rounded=0;orthogonalLoop=1;jettySize=auto;html=1;" edge="1" parent="1" source="zx6dYSFP0FjN7kiB9qOy-31" target="zx6dYSFP0FjN7kiB9qOy-35">
          <mxGeometry relative="1" as="geometry">
            <Array as="points">
              <mxPoint x="302" y="1721" />
            </Array>
          </mxGeometry>
        </mxCell>
        <mxCell id="zx6dYSFP0FjN7kiB9qOy-31" value="開発者" style="verticalLabelPosition=bottom;html=1;verticalAlign=top;align=center;strokeColor=none;fillColor=#00BEF2;shape=mxgraph.azure.user;" vertex="1" parent="1">
          <mxGeometry x="272" y="1548" width="60" height="59" as="geometry" />
        </mxCell>
        <mxCell id="zx6dYSFP0FjN7kiB9qOy-33" value="Github" style="dashed=0;outlineConnect=0;html=1;align=center;labelPosition=center;verticalLabelPosition=bottom;verticalAlign=top;shape=mxgraph.weblogos.github" vertex="1" parent="1">
          <mxGeometry x="646.5" y="1540" width="75" height="75" as="geometry" />
        </mxCell>
        <mxCell id="zx6dYSFP0FjN7kiB9qOy-44" style="edgeStyle=orthogonalEdgeStyle;rounded=0;orthogonalLoop=1;jettySize=auto;html=1;" edge="1" parent="1" source="zx6dYSFP0FjN7kiB9qOy-35" target="zx6dYSFP0FjN7kiB9qOy-36">
          <mxGeometry relative="1" as="geometry" />
        </mxCell>
        <mxCell id="zx6dYSFP0FjN7kiB9qOy-35" value="AWS Cloud" style="sketch=0;outlineConnect=0;fontColor=#232F3E;gradientColor=none;strokeColor=#232F3E;fillColor=#ffffff;dashed=0;verticalLabelPosition=bottom;verticalAlign=top;align=center;html=1;fontSize=12;fontStyle=0;aspect=fixed;shape=mxgraph.aws4.resourceIcon;resIcon=mxgraph.aws4.aws_cloud;" vertex="1" parent="1">
          <mxGeometry x="520.5" y="1691" width="60" height="60" as="geometry" />
        </mxCell>
        <mxCell id="zx6dYSFP0FjN7kiB9qOy-36" value="Slack" style="shape=image;html=1;verticalAlign=top;verticalLabelPosition=bottom;labelBackgroundColor=#ffffff;imageAspect=0;aspect=fixed;image=https://cdn2.iconfinder.com/data/icons/social-media-2285/512/1_Slack_colored_svg-128.png" vertex="1" parent="1">
          <mxGeometry x="736" y="1830" width="90" height="90" as="geometry" />
        </mxCell>
        <mxCell id="zx6dYSFP0FjN7kiB9qOy-37" value="開発者が新規作成や更新コードを&lt;div&gt;バージョン管理サービスGitHubへ&lt;span style=&quot;background-color: initial;&quot;&gt;アップロード&lt;/span&gt;&lt;/div&gt;" style="text;html=1;align=center;verticalAlign=middle;resizable=0;points=[];autosize=1;strokeColor=none;fillColor=none;" vertex="1" parent="1">
          <mxGeometry x="341" y="1527" width="270" height="41" as="geometry" />
        </mxCell>
        <mxCell id="zx6dYSFP0FjN7kiB9qOy-40" value="&lt;span style=&quot;text-wrap-mode: nowrap;&quot;&gt;クラウド環境からのエラー通知がSlackに送信されます。&lt;/span&gt;" style="rounded=1;whiteSpace=wrap;html=1;dashed=1;dashPattern=1 1;strokeColor=none;" vertex="1" parent="1">
          <mxGeometry x="383" y="1779" width="371" height="23" as="geometry" />
        </mxCell>
        <mxCell id="zx6dYSFP0FjN7kiB9qOy-41" value="" style="edgeStyle=orthogonalEdgeStyle;rounded=0;orthogonalLoop=1;jettySize=auto;html=1;" edge="1" parent="1" source="zx6dYSFP0FjN7kiB9qOy-33" target="zx6dYSFP0FjN7kiB9qOy-36">
          <mxGeometry relative="1" as="geometry">
            <mxPoint x="650.5" y="1615" as="sourcePoint" />
            <mxPoint x="650" y="1658" as="targetPoint" />
          </mxGeometry>
        </mxCell>
        <mxCell id="zx6dYSFP0FjN7kiB9qOy-42" value="&lt;div&gt;&lt;br&gt;&lt;/div&gt;" style="rounded=1;whiteSpace=wrap;html=1;dashed=1;dashPattern=1 1;strokeColor=none;rotation=90;" vertex="1" parent="1">
          <mxGeometry x="916" y="1721" width="371" height="24" as="geometry" />
        </mxCell>
        <mxCell id="zx6dYSFP0FjN7kiB9qOy-48" value="&lt;br class=&quot;Apple-interchange-newline&quot;&gt;GitHubの活動（コメントやプルリクエスト）が&lt;div style=&quot;text-wrap-mode: wrap;&quot;&gt;&lt;span style=&quot;text-wrap-mode: nowrap;&quot;&gt;Slackに通知されます。&lt;/span&gt;&lt;/div&gt;&lt;div&gt;&lt;span style=&quot;text-wrap-mode: nowrap;&quot;&gt;&lt;br&gt;&lt;/span&gt;&lt;/div&gt;" style="text;html=1;align=center;verticalAlign=middle;resizable=0;points=[];autosize=1;strokeColor=none;fillColor=none;rotation=90;" vertex="1" parent="1">
          <mxGeometry x="683.5" y="1672" width="271" height="70" as="geometry" />
        </mxCell>
      </root>
    </mxGraphModel>
  </diagram>
</mxfile>
